<svg width="485" height="275" viewBox="0 0 485 275" fill="none" xmlns="http://www.w3.org/2000/svg">
<path d="M168.333 0.00316561C234.765 -0.237423 279.293 13.2357 301.918 40.4226C324.544 67.6096 335.856 99.2474 335.856 135.336C335.856 170.463 324.423 202.582 301.557 231.693C278.691 260.564 234.283 275 168.333 275C122.12 275 86.3767 267.181 61.1038 251.542C36.0716 235.904 19.4637 217.739 11.2801 197.048C3.0965 176.117 -0.634261 155.546 0.0878208 135.336C0.0878208 100.45 11.5208 69.1734 34.3867 41.5053C57.4934 13.8372 102.142 0.00316561 168.333 0.00316561ZM168.694 230.25C194.93 230.25 216.231 225.799 232.598 216.897C248.966 207.755 260.639 195.965 267.619 181.53C274.6 167.094 277.729 151.456 277.006 134.614C277.729 118.495 274.6 103.578 267.619 89.8643C260.639 76.1506 248.966 65.0834 232.598 56.6626C216.231 48.0013 194.93 43.6706 168.694 43.6706C142.699 43.6706 121.518 48.0013 105.151 56.6626C89.0243 65.0834 77.471 76.1506 70.4909 89.8643C63.7514 103.578 60.6224 118.495 61.1038 134.614C60.6224 151.456 63.7514 167.094 70.4909 181.53C77.471 195.965 89.0243 207.755 105.151 216.897C121.518 225.799 142.699 230.25 168.694 230.25Z" fill="url(#paint0_linear_604_946)" fill-opacity="0.05"/>
<path d="M485 0.724954V267.782H425.789V84.0901H365.495V46.1969C387.88 46.1969 404.368 43.4301 414.958 37.8964C425.789 32.3628 432.408 26.4683 434.815 20.2129C437.463 13.7169 438.787 7.22093 438.787 0.724954H485Z" fill="url(#paint1_linear_604_946)" fill-opacity="0.05"/>
<defs>
<linearGradient id="paint0_linear_604_946" x1="242.5" y1="0" x2="242.5" y2="275" gradientUnits="userSpaceOnUse">
<stop/>
<stop offset="1" stop-opacity="0"/>
</linearGradient>
<linearGradient id="paint1_linear_604_946" x1="242.5" y1="0" x2="242.5" y2="275" gradientUnits="userSpaceOnUse">
<stop/>
<stop offset="1" stop-opacity="0"/>
</linearGradient>
</defs>
</svg>
