<svg width="676" height="275" viewBox="0 0 676 275" fill="none" xmlns="http://www.w3.org/2000/svg">
<path d="M163.957 7.03324C228.661 6.7988 272.032 19.9275 294.069 46.4194C316.106 72.9113 327.125 103.74 327.125 138.907C327.125 173.135 315.989 204.433 293.718 232.801C271.446 260.934 228.193 275 163.957 275C118.945 275 84.1312 267.381 59.5153 252.142C35.1338 236.903 18.9577 219.203 10.9869 199.041C3.016 178.644 -0.617773 158.6 0.0855377 138.907C0.0855377 104.913 11.2213 74.4352 33.4928 47.4744C55.9987 20.5136 99.4868 7.03324 163.957 7.03324ZM164.309 231.394C189.862 231.394 210.61 227.057 226.552 218.382C242.493 209.474 253.863 197.986 260.662 183.919C267.461 169.853 270.508 154.614 269.805 138.203C270.508 122.496 267.461 107.96 260.662 94.5972C253.863 81.234 242.493 70.4497 226.552 62.2442C210.61 53.8043 189.862 49.5844 164.309 49.5844C138.989 49.5844 118.359 53.8043 102.417 62.2442C86.71 70.4497 75.457 81.234 68.6583 94.5972C62.0941 107.96 59.0464 122.496 59.5153 138.203C59.0464 154.614 62.0941 169.853 68.6583 183.919C75.457 197.986 86.71 209.474 102.417 218.382C118.359 227.057 138.989 231.394 164.309 231.394Z" fill="url(#paint0_linear_604_947)" fill-opacity="0.05"/>
<path d="M676 220.492V267.967H355.642V245.109C355.642 214.631 361.151 191.422 372.17 175.48C383.188 159.303 396.668 148.284 412.61 142.423C428.786 136.562 450.355 131.405 477.315 126.95C485.52 125.778 499.703 123.902 519.865 121.324C540.261 118.979 556.32 116.752 568.042 114.642C579.998 112.532 589.844 109.25 597.581 104.795C605.552 100.107 609.537 93.7766 609.537 85.8056C609.537 71.2702 599.925 60.6032 580.701 53.8043C561.712 47.0055 538.386 43.7234 510.722 43.9578C484.231 43.9578 461.725 48.0605 443.204 56.266C424.684 64.237 415.423 76.8969 415.423 94.2455L355.642 93.8939C355.642 69.9808 364.082 51.1083 380.961 37.2762C398.075 23.2097 418.354 13.4804 441.798 8.08824C465.241 2.69608 488.099 0 510.37 0C551.162 0 587.852 5.74382 620.438 17.2314C653.26 28.4847 669.67 51.3427 669.67 85.8056C669.67 104.327 661.934 118.979 646.461 129.763C631.223 140.548 613.991 148.167 594.768 152.621C575.778 157.076 553.272 161.061 527.25 164.578C516.935 165.75 509.198 166.805 504.041 167.743C485.286 169.619 468.875 173.487 454.809 179.348C440.977 185.209 430.31 191.89 422.808 199.393C415.541 206.66 411.907 213.694 411.907 220.492H676Z" fill="url(#paint1_linear_604_947)" fill-opacity="0.05"/>
<defs>
<linearGradient id="paint0_linear_604_947" x1="338" y1="0" x2="338" y2="275" gradientUnits="userSpaceOnUse">
<stop/>
<stop offset="1" stop-opacity="0"/>
</linearGradient>
<linearGradient id="paint1_linear_604_947" x1="338" y1="0" x2="338" y2="275" gradientUnits="userSpaceOnUse">
<stop/>
<stop offset="1" stop-opacity="0"/>
</linearGradient>
</defs>
</svg>
