<svg width="677" height="275" viewBox="0 0 677 275" fill="none" xmlns="http://www.w3.org/2000/svg">
<path d="M163.519 7.0153C228.051 6.78146 271.306 19.8767 293.284 46.301C315.262 72.7253 326.251 103.476 326.251 138.552C326.251 172.693 315.145 203.912 292.933 232.207C270.721 260.268 227.583 274.298 163.519 274.298C118.627 274.298 83.9064 266.699 59.3563 251.499C35.04 236.299 18.9071 218.644 10.9575 198.533C3.00794 178.189 -0.616122 158.195 0.0853092 138.552C0.0853092 104.645 11.1913 74.2453 33.4033 47.3533C55.8492 20.4613 99.221 7.0153 163.519 7.0153ZM163.87 230.804C189.355 230.804 210.047 226.477 225.946 217.825C241.846 208.939 253.185 197.481 259.966 183.45C266.746 169.42 269.786 154.22 269.084 137.851C269.786 122.183 266.746 107.685 259.966 94.3559C253.185 81.0268 241.846 70.27 225.946 62.0855C210.047 53.6671 189.355 49.4579 163.87 49.4579C138.618 49.4579 118.043 53.6671 102.144 62.0855C86.4783 70.27 75.2554 81.0268 68.4749 94.3559C61.9282 107.685 58.8887 122.183 59.3563 137.851C58.8887 154.22 61.9282 169.42 68.4749 183.45C75.2554 197.481 86.4783 208.939 102.144 217.825C118.043 226.477 138.618 230.804 163.87 230.804Z" fill="url(#paint0_linear_604_948)" fill-opacity="0.05"/>
<path d="M677 181.346C676.766 213.85 662.036 237.585 632.81 252.551C603.583 267.517 565.472 275 518.476 275C483.872 275 454.295 270.674 429.745 262.022C405.195 253.369 386.49 240.859 373.631 224.49C361.005 208.121 354.692 188.595 354.692 165.912H412.209C412.209 187.893 422.497 204.028 443.072 214.318C463.648 224.607 488.782 229.751 518.476 229.751C545.598 229.985 568.746 226.244 587.918 218.527C607.091 210.576 616.794 198.065 617.028 180.995C616.794 173.746 614.923 168.367 611.416 164.86C608.143 161.118 600.895 158.429 589.672 156.792C578.449 154.921 561.03 153.986 537.415 153.986H472.533V110.491H537.415C553.782 110.491 567.109 109.906 577.397 108.737C587.918 107.334 596.452 104.528 602.999 100.319C609.546 96.1097 612.819 89.679 612.819 81.0268C612.819 69.1008 603.7 60.2147 585.463 54.3686C567.226 48.5225 544.897 45.3656 518.476 44.898C488.782 44.6641 463.648 47.9379 443.072 54.7194C422.497 61.267 412.209 71.9069 412.209 86.639H354.692C354.692 52.9656 371.643 30.1658 405.546 18.2398C439.682 6.07993 477.326 0 518.476 0C543.494 0 566.758 1.6369 588.269 4.91071C610.013 7.95068 629.069 15.1998 645.436 26.6582C661.802 38.1165 669.986 55.0702 669.986 77.5191C669.986 102.307 659.347 119.26 638.071 128.38C663.088 137.5 676.065 154.921 677 180.644V181.346Z" fill="url(#paint1_linear_604_948)" fill-opacity="0.05"/>
<defs>
<linearGradient id="paint0_linear_604_948" x1="338.5" y1="0" x2="338.5" y2="275" gradientUnits="userSpaceOnUse">
<stop/>
<stop offset="1" stop-opacity="0"/>
</linearGradient>
<linearGradient id="paint1_linear_604_948" x1="338.5" y1="0" x2="338.5" y2="275" gradientUnits="userSpaceOnUse">
<stop/>
<stop offset="1" stop-opacity="0"/>
</linearGradient>
</defs>
</svg>
