<svg width="648" height="275" viewBox="0 0 648 275" fill="none" xmlns="http://www.w3.org/2000/svg">
<path d="M168.096 0.00316561C234.434 -0.237423 278.9 13.2357 301.494 40.4226C324.087 67.6096 335.384 99.2474 335.384 135.336C335.384 170.463 323.967 202.582 301.133 231.693C278.299 260.564 233.954 275 168.096 275C121.948 275 86.2552 267.181 61.0178 251.542C36.0209 235.904 19.4363 217.739 11.2642 197.048C3.09214 176.117 -0.633369 155.546 0.0876972 135.336C0.0876972 100.45 11.5046 69.1734 34.3384 41.5053C57.4125 13.8372 101.998 0.00316561 168.096 0.00316561ZM168.457 230.25C194.656 230.25 215.927 225.799 232.271 216.897C248.615 207.754 260.273 195.965 267.243 181.53C274.213 167.094 277.338 151.456 276.617 134.614C277.338 118.495 274.213 103.578 267.243 89.8643C260.273 76.1506 248.615 65.0833 232.271 56.6626C215.927 48.0013 194.656 43.6706 168.457 43.6706C142.498 43.6706 121.347 48.0013 105.003 56.6626C88.8991 65.0833 77.362 76.1506 70.3917 89.8643C63.6618 103.578 60.5371 118.495 61.0178 134.614C60.5371 151.456 63.6618 167.094 70.3917 181.53C77.362 195.965 88.8991 207.754 105.003 216.897C121.347 225.799 142.498 230.25 168.457 230.25Z" fill="url(#paint0_linear_604_949)" fill-opacity="0.05"/>
<path d="M610.144 179.365H648V227.363H610.144V267.782H551.017V227.363H361.376V179.365L551.017 0.724954H610.144V179.365ZM551.017 58.4671L430.238 179.365H551.017V58.4671Z" fill="url(#paint1_linear_604_949)" fill-opacity="0.05"/>
<defs>
<linearGradient id="paint0_linear_604_949" x1="327.925" y1="-79.229" x2="327.925" y2="420.462" gradientUnits="userSpaceOnUse">
<stop/>
<stop offset="1" stop-opacity="0"/>
</linearGradient>
<linearGradient id="paint1_linear_604_949" x1="327.925" y1="-79.229" x2="327.925" y2="420.462" gradientUnits="userSpaceOnUse">
<stop/>
<stop offset="1" stop-opacity="0"/>
</linearGradient>
</defs>
</svg>
