<svg width="664" height="275" viewBox="0 0 664 275" fill="none" xmlns="http://www.w3.org/2000/svg">
<path d="M168.04 0.00316146C234.355 -0.237112 278.806 13.2184 301.392 40.3697C323.978 67.5209 335.271 99.1174 335.271 135.159C335.271 170.239 323.858 202.316 301.032 231.39C278.205 260.223 233.875 274.64 168.04 274.64C121.907 274.64 86.2261 266.831 60.9973 251.213C36.0087 235.595 19.4298 217.454 11.2604 196.79C3.0911 175.886 -0.633156 155.342 0.0876677 135.159C0.0876677 100.319 11.5007 69.0828 34.3268 41.4509C57.3931 13.8191 101.964 0.00316146 168.04 0.00316146ZM168.4 229.948C194.59 229.948 215.854 225.503 232.193 216.613C248.532 207.482 260.185 195.709 267.153 181.292C274.121 166.875 277.244 151.257 276.524 134.438C277.244 118.339 274.121 103.442 267.153 89.7466C260.185 76.0508 248.532 64.998 232.193 56.5884C215.854 47.9384 194.59 43.6134 168.4 43.6134C142.45 43.6134 121.306 47.9384 104.968 56.5884C88.8691 64.998 77.3359 76.0508 70.368 89.7466C63.6403 103.442 60.5167 118.339 60.9973 134.438C60.5167 151.257 63.6403 166.875 70.368 181.292C77.3359 195.709 88.8691 207.482 104.968 216.613C121.306 225.503 142.45 229.948 168.4 229.948Z" fill="url(#paint0_linear_604_950)" fill-opacity="0.05"/>
<path d="M664 174.444C663.039 212.408 647.301 238.718 616.786 253.375C586.271 267.792 552.032 275 514.069 275C493.886 275 472.741 271.997 450.636 265.99C428.531 259.983 409.549 249.771 393.691 235.354C378.073 220.938 370.264 202.076 370.264 178.769L429.372 178.409C429.372 194.988 437.301 207.482 453.159 215.892C469.017 224.302 488.359 229.107 511.185 230.309C536.414 231.029 557.799 226.945 575.339 218.054C593.119 208.924 602.009 194.147 602.009 173.723C601.769 154.982 594.681 140.565 580.745 130.473C566.809 120.382 544.223 115.336 512.987 115.336C499.772 115.336 486.557 117.018 473.342 120.382C460.367 123.746 449.555 128.671 440.905 135.159C432.495 141.646 428.291 149.575 428.291 158.946V160.748L371.346 161.83V0.724004H651.386V42.1718H428.291V104.884C449.675 87.3438 486.317 78.5737 538.216 78.5737C562.724 78.5737 584.469 82.4181 603.451 90.107C622.433 97.5556 637.209 108.488 647.781 122.905C658.594 137.321 664 154.381 664 174.084V174.444Z" fill="url(#paint1_linear_604_950)" fill-opacity="0.05"/>
<defs>
<linearGradient id="paint0_linear_604_950" x1="332" y1="0" x2="332" y2="275" gradientUnits="userSpaceOnUse">
<stop/>
<stop offset="1" stop-opacity="0"/>
</linearGradient>
<linearGradient id="paint1_linear_604_950" x1="332" y1="0" x2="332" y2="275" gradientUnits="userSpaceOnUse">
<stop/>
<stop offset="1" stop-opacity="0"/>
</linearGradient>
</defs>
</svg>
