<svg width="679" height="275" viewBox="0 0 679 275" fill="none" xmlns="http://www.w3.org/2000/svg">
<path d="M164.856 4.94859C229.915 4.71294 273.524 17.9092 295.682 44.5373C317.84 71.1654 328.919 102.153 328.919 137.5C328.919 171.904 317.722 203.363 295.328 231.877C272.935 260.154 229.444 274.293 164.856 274.293C119.597 274.293 84.5925 266.635 59.8417 251.317C35.3265 236 19.0617 218.209 11.0471 197.943C3.03254 177.442 -0.62116 157.294 0.0860068 137.5C0.0860068 103.331 11.2828 72.6971 33.6765 45.5977C56.3058 18.4983 100.032 4.94859 164.856 4.94859ZM165.21 230.463C190.903 230.463 211.765 226.103 227.794 217.384C243.823 208.43 255.256 196.883 262.092 182.744C268.928 168.605 271.992 153.288 271.285 136.793C271.992 121.005 268.928 106.395 262.092 92.9627C255.256 79.5308 243.823 68.6911 227.794 60.4434C211.765 51.9601 190.903 47.7185 165.21 47.7185C139.752 47.7185 119.008 51.9601 102.979 60.4434C87.1855 68.6911 75.8708 79.5308 69.0348 92.9627C62.4346 106.395 59.3702 121.005 59.8417 136.793C59.3702 153.288 62.4346 168.605 69.0348 182.744C75.8708 196.883 87.1855 208.43 102.979 217.384C119.008 226.103 139.752 230.463 165.21 230.463Z" fill="url(#paint0_linear_604_951)" fill-opacity="0.05"/>
<path d="M679 180.623C679 201.832 672.164 219.505 658.492 233.644C644.82 247.783 626.434 258.269 603.333 265.103C580.468 271.701 554.656 275 525.898 275C474.746 275 435.145 266.281 407.094 248.843C379.279 231.17 362.896 203.245 357.946 165.071C357.474 157.53 357.239 151.992 357.239 148.458C357.239 92.138 373.739 53.374 406.74 32.1658C439.742 10.7219 479.461 0 525.898 0C569.978 0 605.337 7.06941 631.973 21.2082C658.61 35.1114 671.928 56.3196 671.928 84.8329L615.001 84.126C615.001 69.2802 606.397 58.5583 589.19 51.9602C572.218 45.1264 551.356 41.8273 526.605 42.063C508.926 41.5917 492.19 43.9481 476.396 49.1324C460.839 54.081 447.638 62.5643 436.795 74.5823C426.188 86.3646 420.059 101.682 418.409 120.533C430.902 112.05 445.87 105.805 463.314 101.799C480.757 97.7935 496.315 95.437 509.987 94.7301C523.659 94.0231 538.038 93.6697 553.124 93.6697C578.818 93.6697 601.094 97.2044 619.952 104.274C639.045 111.343 653.66 121.358 663.796 134.319C673.932 147.279 679 162.479 679 179.916V180.623ZM526.605 227.988C552.535 227.988 574.457 224.336 592.372 217.031C610.523 209.49 619.598 197.826 619.598 182.037C619.598 167.192 615.237 155.998 606.515 148.458C597.794 140.681 586.125 135.615 571.511 133.258C557.131 130.902 538.863 129.724 516.705 129.724C454.003 129.724 422.77 143.862 423.005 172.14C423.005 189.578 429.488 202.421 442.452 210.668C455.417 218.916 468.382 223.865 481.347 225.514C494.547 226.928 509.633 227.753 526.605 227.988Z" fill="url(#paint1_linear_604_951)" fill-opacity="0.05"/>
<defs>
<linearGradient id="paint0_linear_604_951" x1="339.5" y1="0" x2="339.5" y2="275" gradientUnits="userSpaceOnUse">
<stop/>
<stop offset="1" stop-opacity="0"/>
</linearGradient>
<linearGradient id="paint1_linear_604_951" x1="339.5" y1="0" x2="339.5" y2="275" gradientUnits="userSpaceOnUse">
<stop/>
<stop offset="1" stop-opacity="0"/>
</linearGradient>
</defs>
</svg>
