<svg width="181" height="768" viewBox="0 0 181 768" fill="none" xmlns="http://www.w3.org/2000/svg">
<path d="M69.2401 731.094C57.003 719.415 49.6453 700.962 47.1669 675.735L79.2311 675.735L79.2311 703.064C79.2311 711.473 81.3223 717.702 85.5045 721.751C89.5319 725.644 94.4887 728.135 100.375 729.225C106.261 730.16 113.774 730.627 122.913 730.627L175.656 730.627L175.656 768L49.0257 768L49.0257 735.532L69.2401 731.094Z" fill="black"/>
<path d="M115.245 494.762L115.245 624.4C122.68 623.933 129.573 621.83 135.924 618.093C142.12 614.356 147.155 608.983 151.027 601.976C154.9 594.968 156.836 586.482 156.836 576.516C156.836 568.262 155.364 560.71 152.421 553.858C149.478 547.006 145.683 541.634 141.036 537.741C136.234 533.848 131.2 531.901 125.933 531.901L125.933 494.762C135.382 494.762 144.289 498.032 152.653 504.572C160.863 510.957 167.524 520.378 172.635 532.836C177.747 545.293 180.303 560.009 180.303 576.983C180.303 592.399 177.437 606.648 171.706 619.728C165.975 632.653 157.92 643.009 147.542 650.795C137.009 658.425 125.004 662.24 111.528 662.24C97.8965 662.24 85.8918 658.503 75.5135 651.028C64.9804 643.554 56.9256 633.354 51.3492 620.429C45.6179 607.348 42.7523 592.866 42.7523 576.983C42.7523 560.632 45.5405 546.306 51.1168 534.004C56.6932 521.702 64.5931 512.125 74.8165 505.273C84.8849 498.421 96.7347 494.917 110.366 494.762L111.528 494.762L115.245 494.762ZM66.2196 576.516C66.2196 588.818 68.9303 598.628 74.3518 605.947C79.6184 613.266 86.7437 618.482 95.7279 621.597L95.7279 533.77C86.7437 535.95 79.6184 540.466 74.3518 547.318C68.9303 554.169 66.2196 563.902 66.2196 576.516Z" fill="black"/>
<path d="M101.769 387.402C101.769 375.878 102.543 365.834 104.092 357.269C105.641 348.549 109.049 341.308 114.316 335.546C119.428 329.785 127.018 326.904 137.086 326.904C155.364 326.904 167.291 334.612 172.868 350.028C178.289 365.445 181 383.586 181 404.453C181 424.697 177.825 443.228 171.474 460.046C164.968 476.864 152.576 485.272 134.298 485.272L134.53 447.666C142.585 447.666 148.394 443.306 151.956 434.585C155.364 425.865 157.068 415.821 157.068 404.453C157.068 389.504 155.597 378.915 152.653 372.686C149.71 366.457 145.063 363.343 138.712 363.343C132.207 363.343 128.102 366.924 126.398 374.087C124.694 381.095 123.842 390.049 123.842 400.949L123.842 406.789C123.687 428.59 120.977 447.121 115.71 462.381C110.443 477.642 99.9876 485.272 84.3428 485.272C67.6136 485.272 56.6932 477.253 51.5815 461.214C46.4699 445.018 43.914 426.332 43.914 405.154C43.914 385.066 47.0895 367.002 53.4403 350.963C59.7912 334.923 72.1057 326.904 90.3839 326.904L89.9192 364.277C80.935 364.277 74.9714 369.104 72.0283 378.759C68.9303 388.414 67.3813 397.29 67.3813 405.387C67.3813 416.755 68.4656 426.643 70.6342 435.052C72.6479 443.461 77.0625 447.666 83.8781 447.666C95.9602 447.666 102.001 433.806 102.001 406.088L101.769 387.402Z" fill="black"/>
<path d="M49.0257 199.649L49.0257 162.276L175.656 162.276L175.656 199.649L158.927 199.649C172.868 211.951 179.838 230.715 179.838 255.942C179.838 273.694 173.875 287.554 161.947 297.52C149.865 307.486 129.651 312.469 101.304 312.469L49.0257 312.469L49.0257 275.096L100.607 275.096C110.521 275.096 119.195 274.317 126.63 272.76C134.066 271.203 140.416 267.777 145.683 262.483C150.795 257.032 153.35 248.935 153.35 238.19C153.35 222.618 148.316 212.34 138.248 207.357C128.024 202.218 115.09 199.649 99.4455 199.649L49.0257 199.649Z" fill="black"/>
<path d="M175.656 106.753L175.656 144.126L3.7176 144.126L3.7176 106.753L175.656 106.753Z" fill="black"/>
<path d="M49.0257 24.2925L49.0257 1.87124e-05L77.3723 1.74734e-05L77.3723 24.2925L175.656 24.2925L175.656 61.6656L77.3723 61.6656L77.3723 87.1261L49.0257 87.1261L49.0257 61.6656L21.6085 61.6656L-1.99091e-06 24.2925L49.0257 24.2925Z" fill="black"/>
</svg>
