<svg width="320" height="75" viewBox="0 0 320 75" fill="none" xmlns="http://www.w3.org/2000/svg">
<path d="M15.3775 28.6906C20.2438 23.62 27.9325 20.5712 38.4437 19.5443V32.8306H27.0566C23.5529 32.8306 20.9575 33.6971 19.2705 35.43C17.6484 37.0988 16.6103 39.1528 16.1561 41.5918C15.7668 44.0308 15.5721 47.1438 15.5721 50.9307L15.5721 72.7856H0L0 20.3145H13.5283L15.3775 28.6906Z" fill="white" fill-opacity="0.1"/>
<path d="M113.849 47.7535H59.8334C60.028 50.8344 60.904 53.6906 62.4612 56.3222C64.0184 58.8896 66.2569 60.9756 69.1767 62.5802C72.0965 64.1849 75.6326 64.9872 79.7852 64.9872C83.2241 64.9872 86.3709 64.3774 89.2258 63.1579C92.0807 61.9384 94.3192 60.3659 95.9413 58.4403C97.5634 56.4506 98.3745 54.3646 98.3745 52.1823H113.849C113.849 56.0976 112.487 59.7882 109.762 63.2542C107.101 66.656 103.176 69.4159 97.9851 71.534C92.7944 73.6521 86.6629 74.7112 79.5906 74.7112C73.167 74.7112 67.2302 73.5238 61.7799 71.1489C56.3945 68.7741 52.0798 65.4365 48.8356 61.1361C45.6562 56.7715 44.0666 51.7972 44.0666 46.2131C44.0666 40.5648 45.6238 35.5905 48.7382 31.2901C51.8527 26.9255 56.1026 23.5879 61.4879 21.2773C66.9382 18.9024 72.9724 17.715 79.5906 17.715C86.4034 17.715 92.3727 18.8703 97.4985 21.181C102.624 23.4917 106.615 26.7651 109.47 31.0013C112.325 35.1733 113.784 40.0834 113.849 45.7317V46.2131V47.7535ZM79.7852 27.439C74.6594 27.439 70.5717 28.5623 67.5221 30.8087C64.4726 32.991 62.299 35.9435 61.0013 39.6662H97.5958C96.6875 35.9435 94.8058 32.991 91.9509 30.8087C89.096 28.5623 85.0408 27.439 79.7852 27.439Z" fill="white" fill-opacity="0.1"/>
<path d="M158.583 42.1695C163.384 42.1695 167.569 42.4904 171.138 43.1322C174.771 43.7741 177.788 45.1861 180.189 47.3684C182.59 49.4865 183.79 52.6316 183.79 56.8036C183.79 64.3774 180.578 69.3196 174.155 71.6303C167.731 73.8768 160.172 75 151.478 75C143.043 75 135.322 73.6842 128.314 71.0526C121.307 68.3569 117.803 63.2221 117.803 55.6483L133.473 55.7445C133.473 59.0822 135.289 61.4891 138.923 62.9653C142.556 64.3774 146.741 65.0834 151.478 65.0834C157.707 65.0834 162.119 64.4737 164.714 63.2542C167.31 62.0347 168.607 60.1091 168.607 57.4775C168.607 54.7818 167.115 53.0809 164.13 52.3748C161.21 51.6688 157.48 51.3158 152.938 51.3158H150.505C141.421 51.2516 133.7 50.1284 127.341 47.9461C120.982 45.7638 117.803 41.4313 117.803 34.9487C117.803 28.0167 121.145 23.4917 127.828 21.3736C134.576 19.2555 142.362 18.1964 151.186 18.1964C159.556 18.1964 167.082 19.5122 173.766 22.1438C180.449 24.7754 183.79 29.8781 183.79 37.4519L168.218 37.2593C168.218 33.5366 166.207 31.0655 162.184 29.846C158.161 28.5623 154.463 27.9204 151.089 27.9204C146.352 27.9204 142.232 28.3697 138.728 29.2683C135.224 30.1027 133.473 31.932 133.473 34.7561C133.473 39.7625 139.247 42.2657 150.797 42.2657L158.583 42.1695Z" fill="white" fill-opacity="0.1"/>
<path d="M236.813 20.3145H252.385V72.7856H236.813V65.8537C231.687 71.6303 223.869 74.5186 213.357 74.5186C205.961 74.5186 200.186 72.0475 196.033 67.1053C191.881 62.0988 189.805 53.7227 189.805 41.9769V20.3145L205.377 20.3145V41.6881C205.377 45.7959 205.701 49.3902 206.35 52.4711C206.999 55.552 208.426 58.1836 210.632 60.3659C212.903 62.484 216.277 63.543 220.754 63.543C227.243 63.543 231.525 61.457 233.601 57.285C235.742 53.0488 236.813 47.6893 236.813 41.2067V20.3145Z" fill="white" fill-opacity="0.1"/>
<path d="M275.52 72.7856H259.948V1.54044L275.52 1.54044V72.7856Z" fill="white" fill-opacity="0.1"/>
<path d="M309.878 20.3145L320 20.3145V32.0603H309.878V72.7856H294.306V32.0603L283.697 32.0603V20.3145H294.306V8.95379L309.878 0V20.3145Z" fill="white" fill-opacity="0.1"/>
</svg>
