<svg width="353" height="353" viewBox="0 0 353 353" fill="none" xmlns="http://www.w3.org/2000/svg">
<rect width="353" height="353" rx="72" fill="white"/>
<path d="M144.077 96.9168C166.254 73.6787 201.292 59.7065 249.193 55V115.89H197.3C181.334 115.89 169.506 119.861 161.818 127.803C154.426 135.451 149.695 144.864 147.625 156.042C145.851 167.219 144.964 181.486 144.964 198.841V299H74V58.5298H135.65L144.077 96.9168Z" fill="url(#paint0_linear_359_121)"/>
<path d="M264.932 286.552C254.886 294.851 242.638 299 228.187 299C219.022 299 210.211 297.286 201.751 293.859C193.468 290.251 186.595 284.658 181.132 277.081C175.845 269.505 173.201 260.034 173.201 248.669C173.201 237.303 175.845 227.833 181.132 220.256C186.595 212.679 193.468 207.087 201.751 203.479C210.211 199.871 219.022 198.067 228.187 198.067C242.638 198.067 254.886 202.306 264.932 210.785C274.977 219.083 280 231.711 280 248.669C280 265.626 274.977 278.254 264.932 286.552Z" fill="url(#paint1_linear_359_121)"/>
<defs>
<linearGradient id="paint0_linear_359_121" x1="170.889" y1="100.865" x2="170.889" y2="454.358" gradientUnits="userSpaceOnUse">
<stop/>
<stop offset="0.341346" stop-opacity="0.8"/>
<stop offset="1" stop-color="#00A819" stop-opacity="0"/>
</linearGradient>
<linearGradient id="paint1_linear_359_121" x1="1658.55" y1="168.711" x2="1658.55" y2="373.414" gradientUnits="userSpaceOnUse">
<stop/>
<stop offset="0.341346" stop-opacity="0.8"/>
<stop offset="1" stop-color="#00A819" stop-opacity="0"/>
</linearGradient>
</defs>
</svg>
