<svg width="138" height="29" viewBox="0 0 138 29" fill="none" xmlns="http://www.w3.org/2000/svg">
<path d="M5.89274 11.0937C7.75753 9.13308 10.7039 7.95422 14.7319 7.55712V12.6945H10.3682C9.02559 12.6945 8.03104 13.0295 7.38458 13.6996C6.76298 14.3449 6.36516 15.1391 6.19111 16.0822C6.04193 17.0252 5.96733 18.2289 5.96733 19.6932V28.1438H0V7.85494H5.18412L5.89274 11.0937Z" fill="url(#paint0_linear_495_1015)"/>
<path d="M43.6277 18.4647H22.9285C23.0031 19.656 23.3387 20.7604 23.9355 21.7779C24.5322 22.7706 25.39 23.5772 26.5089 24.1977C27.6278 24.8181 28.9829 25.1284 30.5741 25.1284C31.8919 25.1284 33.0978 24.8926 34.1918 24.4211C35.2858 23.9495 36.1436 23.3415 36.7652 22.5969C37.3868 21.8276 37.6976 21.021 37.6976 20.1772H43.6277C43.6277 21.6911 43.1055 23.1181 42.0613 24.4583C41.0418 25.7736 39.5376 26.8408 37.5485 27.6598C35.5594 28.4788 33.2097 28.8883 30.4995 28.8883C28.038 28.8883 25.763 28.4292 23.6744 27.5109C21.6107 26.5926 19.9573 25.3021 18.7141 23.6393C17.4957 21.9516 16.8866 20.0282 16.8866 17.8691C16.8866 15.6851 17.4833 13.7617 18.6768 12.0988C19.8702 10.4112 21.4988 9.12067 23.5625 8.22721C25.6511 7.30894 27.9634 6.84981 30.4995 6.84981C33.1103 6.84981 35.3977 7.29653 37.362 8.18999C39.3262 9.08344 40.8554 10.3492 41.9494 11.9872C43.0434 13.6003 43.6028 15.4989 43.6277 17.6829V17.8691V18.4647ZM30.5741 10.6098C28.6099 10.6098 27.0435 11.0441 25.8749 11.9127C24.7063 12.7565 23.8733 13.8982 23.376 15.3376H37.3993C37.0512 13.8982 36.3301 12.7565 35.2361 11.9127C34.1421 11.0441 32.5881 10.6098 30.5741 10.6098Z" fill="url(#paint1_linear_495_1015)"/>
<path d="M60.7698 16.3055C62.6097 16.3055 64.2134 16.4296 65.5809 16.6778C66.9733 16.926 68.1295 17.472 69.0495 18.3158C69.9694 19.1348 70.4294 20.3509 70.4294 21.9641C70.4294 24.8926 69.1986 26.8036 66.7371 27.697C64.2756 28.5657 61.3789 29 58.0472 29C54.8149 29 51.8561 28.4912 49.1708 27.4737C46.4855 26.4313 45.1428 24.4459 45.1428 21.5173L51.1475 21.5546C51.1475 22.8451 51.8436 23.7758 53.236 24.3466C54.6284 24.8926 56.2321 25.1656 58.0472 25.1656C60.4341 25.1656 62.1249 24.9298 63.1194 24.4583C64.114 23.9867 64.6113 23.2422 64.6113 22.2246C64.6113 21.1823 64.0394 20.5246 62.8956 20.2516C61.7768 19.9786 60.3471 19.8421 58.6066 19.8421H57.6742C54.1933 19.8173 51.2345 19.383 48.7978 18.5392C46.3612 17.6953 45.1428 16.0201 45.1428 13.5135C45.1428 10.8331 46.4233 9.08344 48.9843 8.26444C51.5701 7.44544 54.5538 7.03594 57.9353 7.03594C61.1427 7.03594 64.027 7.54472 66.5879 8.56226C69.1489 9.5798 70.4294 11.5528 70.4294 14.4814L64.4621 14.4069C64.4621 12.9675 63.6913 12.012 62.1497 11.5404C60.6082 11.0441 59.1909 10.7959 57.898 10.7959C56.0829 10.7959 54.5041 10.9696 53.1614 11.3171C51.8188 11.6397 51.1475 12.347 51.1475 13.439C51.1475 15.3748 53.3603 16.3427 57.7861 16.3427L60.7698 16.3055Z" fill="url(#paint2_linear_495_1015)"/>
<path d="M90.7481 7.85494H96.7154V28.1438H90.7481V25.4634C88.7838 27.697 85.7877 28.8139 81.7598 28.8139C78.9253 28.8139 76.7124 27.8584 75.1211 25.9474C73.5298 24.0116 72.7342 20.7728 72.7342 16.2311V7.85494H78.7015V16.1194C78.7015 17.7077 78.8258 19.0976 79.0745 20.2888C79.3231 21.4801 79.8701 22.4976 80.7155 23.3415C81.5857 24.1605 82.8786 24.57 84.5942 24.57C87.0806 24.57 88.7217 23.7634 89.5173 22.1502C90.3378 20.5122 90.7481 18.4399 90.7481 15.9332V7.85494Z" fill="url(#paint3_linear_495_1015)"/>
<path d="M105.581 28.1438H99.6134V0.595637H105.581V28.1438Z" fill="url(#paint4_linear_495_1015)"/>
<path d="M118.747 7.85494H122.626V12.3967H118.747V28.1438H112.78V12.3967H108.714V7.85494H112.78V3.46213L118.747 0V7.85494Z" fill="url(#paint5_linear_495_1015)"/>
<path d="M136.733 27.9498C135.888 28.6499 134.858 29 133.643 29C132.872 29 132.131 28.8554 131.42 28.5662C130.724 28.2618 130.146 27.79 129.686 27.1507C129.242 26.5114 129.019 25.7124 129.019 24.7535C129.019 23.7946 129.242 22.9955 129.686 22.3562C130.146 21.717 130.724 21.2451 131.42 20.9407C132.131 20.6363 132.872 20.4841 133.643 20.4841C134.858 20.4841 135.888 20.8418 136.733 21.5571C137.578 22.2573 138 23.3227 138 24.7535C138 26.1842 137.578 27.2496 136.733 27.9498Z" fill="url(#paint6_linear_495_1015)"/>
<defs>
<linearGradient id="paint0_linear_495_1015" x1="64.9064" y1="5.45113" x2="64.9064" y2="47.4647" gradientUnits="userSpaceOnUse">
<stop stop-color="white"/>
<stop offset="1" stop-color="white" stop-opacity="0.4"/>
</linearGradient>
<linearGradient id="paint1_linear_495_1015" x1="64.9064" y1="5.45113" x2="64.9064" y2="47.4647" gradientUnits="userSpaceOnUse">
<stop stop-color="white"/>
<stop offset="1" stop-color="white" stop-opacity="0.4"/>
</linearGradient>
<linearGradient id="paint2_linear_495_1015" x1="64.9064" y1="5.45113" x2="64.9064" y2="47.4647" gradientUnits="userSpaceOnUse">
<stop stop-color="white"/>
<stop offset="1" stop-color="white" stop-opacity="0.4"/>
</linearGradient>
<linearGradient id="paint3_linear_495_1015" x1="64.9064" y1="5.45113" x2="64.9064" y2="47.4647" gradientUnits="userSpaceOnUse">
<stop stop-color="white"/>
<stop offset="1" stop-color="white" stop-opacity="0.4"/>
</linearGradient>
<linearGradient id="paint4_linear_495_1015" x1="64.9064" y1="5.45113" x2="64.9064" y2="47.4647" gradientUnits="userSpaceOnUse">
<stop stop-color="white"/>
<stop offset="1" stop-color="white" stop-opacity="0.4"/>
</linearGradient>
<linearGradient id="paint5_linear_495_1015" x1="64.9064" y1="5.45113" x2="64.9064" y2="47.4647" gradientUnits="userSpaceOnUse">
<stop stop-color="white"/>
<stop offset="1" stop-color="white" stop-opacity="0.4"/>
</linearGradient>
<linearGradient id="paint6_linear_495_1015" x1="133.243" y1="17.1511" x2="133.243" y2="34.4222" gradientUnits="userSpaceOnUse">
<stop stop-color="white"/>
<stop offset="1" stop-color="white" stop-opacity="0.4"/>
</linearGradient>
</defs>
</svg>
