<svg width="148" height="29" viewBox="0 0 148 29" fill="none" xmlns="http://www.w3.org/2000/svg">
<path d="M6.28067 11.0937C8.26822 9.13308 11.4086 7.95422 15.7017 7.55712V12.6945H11.0508C9.61975 12.6945 8.55973 13.0295 7.87071 13.6996C7.20819 14.3449 6.78418 15.1391 6.59867 16.0822C6.43967 17.0252 6.36017 18.2289 6.36017 19.6932V28.1438H0V7.85494H5.5254L6.28067 11.0937Z" fill="url(#paint0_linear_27_17)"/>
<path d="M46.4997 18.4647H24.4379C24.5174 19.656 24.8751 20.7604 25.5112 21.7779C26.1472 22.7706 27.0615 23.5772 28.254 24.1977C29.4465 24.8181 30.8908 25.1284 32.5869 25.1284C33.9914 25.1284 35.2767 24.8926 36.4427 24.4211C37.6087 23.9495 38.523 23.3415 39.1855 22.5969C39.848 21.8276 40.1793 21.021 40.1793 20.1772H46.4997C46.4997 21.6911 45.9432 23.1181 44.8302 24.4583C43.7436 25.7736 42.1404 26.8408 40.0203 27.6598C37.9002 28.4788 35.3959 28.8883 32.5074 28.8883C29.8838 28.8883 27.459 28.4292 25.2329 27.5109C23.0334 26.5926 21.2711 25.3021 19.946 23.6393C18.6475 21.9516 17.9982 20.0282 17.9982 17.8691C17.9982 15.6851 18.6342 13.7617 19.9063 12.0988C21.1783 10.4112 22.9141 9.12067 25.1137 8.22721C27.3397 7.30894 29.8043 6.84981 32.5074 6.84981C35.2899 6.84981 37.728 7.29653 39.8215 8.18999C41.9151 9.08344 43.5449 10.3492 44.7109 11.9872C45.877 13.6003 46.4732 15.4989 46.4997 17.6829V17.8691V18.4647ZM32.5869 10.6098C30.4933 10.6098 28.8238 11.0441 27.5782 11.9127C26.3327 12.7565 25.4449 13.8982 24.9149 15.3376H39.8613C39.4903 13.8982 38.7218 12.7565 37.5557 11.9127C36.3897 11.0441 34.7334 10.6098 32.5869 10.6098Z" fill="url(#paint1_linear_27_17)"/>
<path d="M64.7703 16.3055C66.7313 16.3055 68.4406 16.4296 69.8982 16.6778C71.3822 16.926 72.6145 17.472 73.595 18.3158C74.5755 19.1348 75.0658 20.3509 75.0658 21.9641C75.0658 24.8926 73.754 26.8036 71.1305 27.697C68.5069 28.5657 65.4196 29 61.8685 29C58.4234 29 55.2698 28.4912 52.4077 27.4737C49.5456 26.4313 48.1146 24.4459 48.1146 21.5173L54.5145 21.5546C54.5145 22.8451 55.2565 23.7758 56.7406 24.3466C58.2246 24.8926 59.9339 25.1656 61.8685 25.1656C64.4125 25.1656 66.2146 24.9298 67.2746 24.4583C68.3346 23.9867 68.8647 23.2422 68.8647 22.2246C68.8647 21.1823 68.2551 20.5246 67.0361 20.2516C65.8436 19.9786 64.3198 19.8421 62.4647 19.8421H61.471C57.7609 19.8173 54.6073 19.383 52.0102 18.5392C49.4131 17.6953 48.1146 16.0201 48.1146 13.5135C48.1146 10.8331 49.4794 9.08344 52.209 8.26444C54.965 7.44544 58.1451 7.03594 61.7492 7.03594C65.1678 7.03594 68.2419 7.54472 70.9715 8.56226C73.701 9.5798 75.0658 11.5528 75.0658 14.4814L68.7056 14.4069C68.7056 12.9675 67.8841 12.012 66.2411 11.5404C64.598 11.0441 63.0875 10.7959 61.7095 10.7959C59.7749 10.7959 58.0921 10.9696 56.6611 11.3171C55.23 11.6397 54.5145 12.347 54.5145 13.439C54.5145 15.3748 56.8731 16.3427 61.5902 16.3427L64.7703 16.3055Z" fill="url(#paint2_linear_27_17)"/>
<path d="M96.7221 7.85494H103.082V28.1438H96.7221V25.4634C94.6285 27.697 91.4352 28.8139 87.1421 28.8139C84.121 28.8139 81.7624 27.8584 80.0664 25.9474C78.3703 24.0116 77.5223 20.7728 77.5223 16.2311V7.85494H83.8825V16.1194C83.8825 17.7077 84.015 19.0976 84.28 20.2888C84.545 21.4801 85.128 22.4976 86.029 23.3415C86.9566 24.1605 88.3346 24.57 90.1631 24.57C92.8132 24.57 94.5623 23.7634 95.4103 22.1502C96.2848 20.5122 96.7221 18.4399 96.7221 15.9332V7.85494Z" fill="url(#paint3_linear_27_17)"/>
<path d="M112.531 28.1438H106.171V0.595637H112.531V28.1438Z" fill="url(#paint4_linear_27_17)"/>
<path d="M126.564 7.85494H130.698V12.3967H126.564V28.1438H120.204V12.3967H115.871V7.85494H120.204V3.46213L126.564 0V7.85494Z" fill="url(#paint5_linear_27_17)"/>
<path d="M145.734 27.9498C144.834 28.6499 143.736 29 142.441 29C141.62 29 140.83 28.8554 140.072 28.5662C139.329 28.2618 138.713 27.79 138.224 27.1507C137.75 26.5114 137.513 25.7124 137.513 24.7535C137.513 23.7946 137.75 22.9955 138.224 22.3562C138.713 21.717 139.329 21.2451 140.072 20.9407C140.83 20.6363 141.62 20.4841 142.441 20.4841C143.736 20.4841 144.834 20.8418 145.734 21.5571C146.634 22.2573 147.085 23.3227 147.085 24.7535C147.085 26.1842 146.634 27.2496 145.734 27.9498Z" fill="url(#paint6_linear_27_17)"/>
<defs>
<linearGradient id="paint0_linear_27_17" x1="69.1792" y1="5.45113" x2="69.1792" y2="47.4647" gradientUnits="userSpaceOnUse">
<stop/>
<stop offset="0.341346" stop-opacity="0.8"/>
<stop offset="1" stop-color="#00A819" stop-opacity="0"/>
</linearGradient>
<linearGradient id="paint1_linear_27_17" x1="69.1792" y1="5.45113" x2="69.1792" y2="47.4647" gradientUnits="userSpaceOnUse">
<stop/>
<stop offset="0.341346" stop-opacity="0.8"/>
<stop offset="1" stop-color="#00A819" stop-opacity="0"/>
</linearGradient>
<linearGradient id="paint2_linear_27_17" x1="69.1792" y1="5.45113" x2="69.1792" y2="47.4647" gradientUnits="userSpaceOnUse">
<stop/>
<stop offset="0.341346" stop-opacity="0.8"/>
<stop offset="1" stop-color="#00A819" stop-opacity="0"/>
</linearGradient>
<linearGradient id="paint3_linear_27_17" x1="69.1792" y1="5.45113" x2="69.1792" y2="47.4647" gradientUnits="userSpaceOnUse">
<stop/>
<stop offset="0.341346" stop-opacity="0.8"/>
<stop offset="1" stop-color="#00A819" stop-opacity="0"/>
</linearGradient>
<linearGradient id="paint4_linear_27_17" x1="69.1792" y1="5.45113" x2="69.1792" y2="47.4647" gradientUnits="userSpaceOnUse">
<stop/>
<stop offset="0.341346" stop-opacity="0.8"/>
<stop offset="1" stop-color="#00A819" stop-opacity="0"/>
</linearGradient>
<linearGradient id="paint5_linear_27_17" x1="69.1792" y1="5.45113" x2="69.1792" y2="47.4647" gradientUnits="userSpaceOnUse">
<stop/>
<stop offset="0.341346" stop-opacity="0.8"/>
<stop offset="1" stop-color="#00A819" stop-opacity="0"/>
</linearGradient>
<linearGradient id="paint6_linear_27_17" x1="142.015" y1="17.1511" x2="142.015" y2="34.4222" gradientUnits="userSpaceOnUse">
<stop/>
<stop offset="0.341346" stop-opacity="0.8"/>
<stop offset="1" stop-color="#00A819" stop-opacity="0"/>
</linearGradient>
</defs>
</svg>
