<svg width="1920" height="401" viewBox="0 0 1920 401" fill="none" xmlns="http://www.w3.org/2000/svg">
<path d="M80.1141 156.842C106.1 129.123 147.157 112.456 203.285 106.842V179.474H142.479C123.77 179.474 109.911 184.211 100.902 193.684C92.2406 202.807 86.6971 214.035 84.2718 227.368C82.1929 240.702 81.1535 257.719 81.1535 278.421V397.895H-2V111.053H70.2396L80.1141 156.842Z" fill="white" fill-opacity="0.05"/>
<path d="M605.942 261.053H317.504C318.543 277.895 323.22 293.509 331.536 307.895C339.851 321.93 351.804 333.333 367.396 342.105C382.987 350.877 401.87 355.263 424.044 355.263C442.407 355.263 459.211 351.93 474.456 345.263C489.701 338.596 501.654 330 510.316 319.474C518.978 308.596 523.308 297.193 523.308 285.263H605.942C605.942 306.667 598.666 326.842 584.115 345.789C569.909 364.386 548.948 379.474 521.23 391.053C493.512 402.632 460.77 408.421 423.005 408.421C388.704 408.421 357.001 401.93 327.898 388.947C299.14 375.965 276.1 357.719 258.776 334.211C241.799 310.351 233.311 283.158 233.311 252.632C233.311 221.754 241.626 194.561 258.257 171.053C274.887 147.193 297.581 128.947 326.339 116.316C355.442 103.333 387.664 96.8421 423.005 96.8421C459.384 96.8421 491.26 103.158 518.631 115.789C546.002 128.421 567.311 146.316 582.555 169.474C597.8 192.281 605.596 219.123 605.942 250V252.632V261.053ZM424.044 150C396.673 150 374.845 156.14 358.561 168.421C342.276 180.351 330.669 196.491 323.74 216.842H519.151C514.3 196.491 504.252 180.351 489.008 168.421C473.763 156.14 452.108 150 424.044 150Z" fill="white" fill-opacity="0.05"/>
<path d="M844.814 230.526C870.453 230.526 892.8 232.281 911.856 235.789C931.259 239.298 947.37 247.018 960.189 258.947C973.009 270.526 979.418 287.719 979.418 310.526C979.418 351.93 962.268 378.947 927.967 391.579C893.666 403.86 853.302 410 806.875 410C761.833 410 720.603 402.807 683.184 388.421C645.765 373.684 627.055 345.614 627.055 304.211L710.729 304.737C710.729 322.982 720.43 336.14 739.832 344.211C759.235 351.93 781.582 355.789 806.875 355.789C840.136 355.789 863.696 352.456 877.555 345.789C891.414 339.123 898.344 328.596 898.344 314.211C898.344 299.474 890.375 290.175 874.437 286.316C858.846 282.456 838.924 280.526 814.671 280.526H801.678C753.172 280.175 711.941 274.035 677.987 262.105C644.033 250.175 627.055 226.491 627.055 191.053C627.055 153.158 644.899 128.421 680.586 116.842C716.619 105.263 758.195 99.4737 805.316 99.4737C850.011 99.4737 890.202 106.667 925.888 121.053C961.575 135.439 979.418 163.333 979.418 204.737L896.265 203.684C896.265 183.333 885.524 169.825 864.043 163.158C842.562 156.14 822.813 152.632 804.796 152.632C779.504 152.632 757.503 155.088 738.793 160C720.083 164.561 710.729 174.561 710.729 190C710.729 217.368 741.565 231.053 803.237 231.053L844.814 230.526Z" fill="white" fill-opacity="0.05"/>
<path d="M1262.55 111.053H1345.71V397.895H1262.55V360C1235.18 391.579 1193.43 407.368 1137.3 407.368C1097.81 407.368 1066.97 393.86 1044.8 366.842C1022.62 339.474 1011.53 293.684 1011.53 229.474V111.053H1094.69V227.895C1094.69 250.351 1096.42 270 1099.89 286.842C1103.35 303.684 1110.97 318.07 1122.75 330C1134.88 341.579 1152.9 347.368 1176.8 347.368C1211.45 347.368 1234.32 335.965 1245.4 313.158C1256.84 290 1262.55 260.702 1262.55 225.263V111.053Z" fill="white" fill-opacity="0.05"/>
<path d="M1469.24 397.895H1386.09V8.42107H1469.24V397.895Z" fill="white" fill-opacity="0.05"/>
<path d="M1652.71 111.053H1706.76V175.263H1652.71V397.895H1569.56V175.263H1512.91V111.053H1569.56V48.9474L1652.71 0V111.053Z" fill="white" fill-opacity="0.05"/>
<path d="M1903.34 395.152C1891.57 405.051 1877.22 410 1860.29 410C1849.55 410 1839.22 407.956 1829.31 403.867C1819.6 399.563 1811.55 392.893 1805.15 383.855C1798.95 374.817 1795.86 363.52 1795.86 349.963C1795.86 336.406 1798.95 325.109 1805.15 316.071C1811.55 307.033 1819.6 300.362 1829.31 296.058C1839.22 291.755 1849.55 289.603 1860.29 289.603C1877.22 289.603 1891.57 294.66 1903.34 304.773C1915.11 314.672 1921 329.735 1921 349.963C1921 370.19 1915.11 385.253 1903.34 395.152Z" fill="white" fill-opacity="0.05"/>
</svg>
