<svg width="34" height="30" viewBox="0 0 34 30" fill="none" xmlns="http://www.w3.org/2000/svg">
<path d="M30.7354 0.257182C30.7354 0.257182 33.8437 -1.0038 33.5846 2.05859C33.4983 3.31958 32.7213 7.73301 32.1169 12.5068L30.0447 26.6478C30.0447 26.6478 29.8721 28.7194 28.3179 29.0797C26.7637 29.4399 24.4326 27.8187 24.0009 27.4584C23.6555 27.1882 17.5254 23.135 15.3669 21.1535C14.7625 20.6131 14.0718 19.5322 15.4532 18.2712L24.5189 9.26425C25.555 8.18338 26.5911 5.66142 22.2741 8.72382L10.1865 17.2805C10.1865 17.2805 8.80504 18.1812 6.21488 17.3706L0.602736 15.5691C0.602736 15.5691 -1.46943 14.2181 2.07052 12.867C10.7046 8.63367 21.3244 4.3103 30.7354 0.257182Z" fill="white" fill-opacity="0.9"/>
</svg>
