<svg width="49" height="30" viewBox="0 0 49 30" fill="none" xmlns="http://www.w3.org/2000/svg">
<path d="M29.1507 14.0128C28.2704 13.6684 28.2704 12.3532 28.2158 11.4374C27.9957 8.17511 29.0961 3.19472 27.7757 1.07727C26.8408 -0.182942 22.3285 -0.0675452 19.5785 0.104635C18.8074 0.220032 17.8726 0.390382 17.2124 0.734742C16.5521 1.0791 15.8919 1.65059 15.8919 2.1653C15.8919 2.90897 17.5433 2.79541 18.1472 3.76804C18.8074 4.79929 18.8074 7.0303 18.8074 8.862C18.8074 10.9795 18.4764 13.7856 17.6525 13.8992C16.3867 13.956 15.6719 12.639 15.0117 11.6663C13.6912 9.77785 12.3708 7.42961 11.3796 5.13999C10.8849 3.93839 10.6085 2.62139 9.89374 2.10669C8.79339 1.3044 6.81277 1.24762 4.88673 1.3044C3.12617 1.36118 0.594498 1.13222 0.0997824 2.22025C-0.285779 3.42185 0.539921 4.56666 0.980059 5.54113C3.23533 10.6351 5.65609 15.1008 8.6279 19.3357C11.3796 23.2848 13.9641 26.4335 19.0257 28.093C20.4571 28.551 26.7281 29.868 27.994 28.093C28.4341 27.4062 28.325 25.8602 28.545 24.7154C28.7651 23.5706 29.0397 22.4258 30.0855 22.369C30.9658 22.3122 31.4605 23.1126 32.0116 23.686C32.6172 24.3161 33.1119 24.8308 33.552 25.4041C34.5978 26.4921 35.6982 27.9795 37.0186 28.5528C38.8337 29.3551 41.64 29.1261 44.2809 29.0107C46.427 28.9539 47.9674 28.496 48.1329 27.179C48.2439 26.1478 47.1418 24.6604 46.4815 23.8014C44.8301 21.6839 44.0608 21.0538 42.1893 19.1067C41.3636 18.2476 40.3178 17.3318 40.3178 16.3024C40.2633 15.6723 40.758 15.1008 41.1981 14.4707C43.1242 11.4942 45.0502 9.37671 46.8108 6.2848C47.3055 5.36895 48.4622 3.2515 48.022 2.22025C47.5273 1.07544 44.7756 1.41797 43.0696 1.41797C40.8689 1.41797 38.008 1.24579 37.457 1.70371C36.4112 2.44738 35.971 3.65081 35.4763 4.79563C34.376 7.42961 32.8901 10.1186 31.3496 12.1224C30.7985 12.8093 29.7545 14.2399 29.1489 14.0109L29.1507 14.0128Z" fill="white" fill-opacity="0.9"/>
</svg>
